<svg width="24" height="22" viewBox="0 0 24 22" fill="none" xmlns="http://www.w3.org/2000/svg">
<path fill-rule="evenodd" clip-rule="evenodd" d="M10.117 1.76586C9.36275 1.32539 8.54031 1.00658 7.66143 0.798503C5.7776 0.35249 3.78176 0.430477 1.87383 0.827585L1.43134 0.925787L1.05658 1.02061L0.735856 1.11267L0.591468 1.15785L0.490811 1.19871C0.135577 1.36958 -0.0635944 1.76525 0.018205 2.1603C0.179927 2.9408 0.535338 4.09077 1.13937 5.35992C2.13214 7.44585 3.49228 9.14462 5.28826 10.1958L5.73464 10.4474L6.18838 10.6846L6.64918 10.9072L6.77699 10.9639L6.76219 11.1025C6.71573 11.6112 6.69242 12.1218 6.69237 12.6328C6.69237 14.7334 7.46282 16.7764 8.74754 18.6905C9.53018 19.8566 10.3495 20.7597 10.9224 21.2768C11.0807 21.4205 11.2881 21.5005 11.5032 21.4999C11.7158 21.4999 11.9218 21.4197 12.0802 21.2758C12.6521 20.7597 13.4714 19.8566 14.254 18.6905C15.5387 16.7764 16.3092 14.7334 16.3092 12.6328L16.302 12.1408L16.2805 11.6493L16.2447 11.1586L16.231 11.0359L16.3589 10.9791C16.8194 10.7644 17.27 10.5284 17.7093 10.2719C19.5058 9.21947 20.8659 7.52047 21.8585 5.43478C22.4628 4.16512 22.8214 3.00457 22.9799 2.23348C23.0767 1.81994 22.845 1.38365 22.434 1.23146L22.2101 1.16123C22.1003 1.12868 21.9793 1.09496 21.8477 1.06075L21.4218 0.957277L21.1863 0.905693C20.4622 0.752737 19.693 0.642776 18.8984 0.595132C16.6967 0.463105 14.6438 0.820696 12.908 1.8362L12.4835 2.09394L12.067 2.36424L11.6588 2.64695L11.563 2.71691L11.4432 2.62819C11.0149 2.31976 10.5724 2.03199 10.117 1.76586ZM1.93099 2.59791L2.07392 2.56542C4.521 2.01277 7.16613 2.05401 9.25217 3.27305L9.65797 3.51474C10.5941 4.09564 11.4541 4.79435 12.2175 5.59423L12.412 5.80591L12.4126 7.1426H14.1418V5.47635L14.1327 5.35358C14.1094 5.19204 14.0419 5.04049 13.9365 4.91556L13.6619 4.60194C13.4756 4.39599 13.283 4.19632 13.0842 4.00318L12.942 3.86991L13.3154 3.62118C13.4639 3.52571 13.6142 3.43285 13.766 3.34264L14.0395 3.191C16.0683 2.12703 18.5849 2.11239 20.9289 2.63984L21.074 2.67391L21.0324 2.81639C20.2985 5.21911 18.9277 7.54761 16.8453 8.76731L16.5203 8.95277L16.2705 9.08625L16.1877 9.12585L15.8099 9.32868L15.3242 9.55254L14.8213 9.75996L14.3184 9.94506L13.8221 10.1023L13.2711 10.2486L13.096 10.2849L11.9523 9.61495L11.0924 11.1233L12.5159 11.9572L12.6175 12.0082C12.7222 12.0523 12.8353 12.0754 12.95 12.0756L12.9709 12.0772L13.0582 12.0739L13.5033 11.9828C13.7954 11.9179 14.0786 11.8446 14.3559 11.7625L14.551 11.6999L14.5732 12.1227C14.5792 12.298 14.5821 12.4734 14.5819 12.6489L14.5752 12.9542C14.4728 15.2907 13.2109 17.5322 11.5807 19.3248L11.503 19.4069L11.4255 19.323C9.71987 17.4453 8.42335 15.0939 8.42335 12.6495C8.42335 12.4559 8.42689 12.2624 8.43396 12.0689L8.43437 12.0109L8.46918 11.4527L8.52044 10.9369L8.52587 10.8591L8.60694 10.2976L8.63299 10.1619L8.67575 9.91797L8.79597 9.35676L8.92086 8.88237L9.00799 8.59891L10.1482 7.9313L9.2884 6.42309L7.85476 7.26283L7.75391 7.33023C7.62613 7.43022 7.52657 7.56916 7.47211 7.72843L7.33697 8.14283C7.25142 8.42061 7.17501 8.7013 7.10789 8.98436L7.05999 9.19791L6.88514 9.1115C6.64035 8.98636 6.39901 8.85426 6.16141 8.71535L5.89496 8.54888C3.97084 7.28466 2.70073 5.07684 1.97692 2.7485L1.93099 2.59791Z" fill="#222222"/>
</svg>
